. 
  
http://www.torrenting.com/        :     Greatest Movie Tracker on The Net!!!
 
http://www.Torrenting.com          :     Once & For all ;)


               www . Torrenting . Com 

(((((((((((((= Enjoy No RAR releases =))))))))))))))))))))


...................................NFO:....................................

.[img]http://img717.imageshack.us/img717/8021/thedilemmabluray.jpg[/img]

[color=blue][size=5][b]The.Dilemma.2011.BDRip.XVID.AC3.HQ.Hive-CM8[/b][/size][/color]


[b]Thx Hive

CM8 Doing It Right The First Time :D


Why download a touched up rip of a rip BRrip
Get the real deal BDRip

Source Bluray

Video: 720x304 @bitrate 1800 2pass
Audio: DTS to AC3 5.1 @448
Sample: yes included
Subs: yes english in srt /subs[/b]


[url]http://www.imdb.com/title/tt1578275/[/url]


General
Complete name                    : The.Dilemma.2011.BDRip.XVID.AC3.HQ.Hive-CM8.avi
Format                           : AVI
Format/Info                      : Audio Video Interleave
File size                        : 1.82 GiB
Duration                         : 1h 51mn
Overall bit rate                 : 2 338 Kbps
Writing application              : Nandub v1.0rc2
Writing library                  : Nandub build 1853/release

Video
ID                               : 0
Format                           : MPEG-4 Visual
Format profile                   : Advanced Simple@L5
Format settings, BVOP            : Yes
Format settings, QPel            : Yes
Format settings, GMC             : No warppoints
Format settings, Matrix          : Default (H.263)
Muxing mode                      : Packed bitstream
Codec ID                         : XVID
Codec ID/Hint                    : XviD
Duration                         : 1h 51mn
Bit rate                         : 1 880 Kbps
Width                            : 720 pixels
Height                           : 304 pixels
Display aspect ratio             : 2.35:1
Frame rate                       : 23.976 fps
Color space                      : YUV
Chroma subsampling               : 4:2:0
Bit depth                        : 8 bits
Scan type                        : Progressive
Bits/(Pixel*Frame)               : 0.358
Stream size                      : 1.46 GiB (80%)
Writing library                  : XviD 1.2.1 (UTC 2008-12-04)

Audio
ID                               : 1
Format                           : AC-3
Format/Info                      : Audio Coding 3
Mode extension                   : CM (complete main)
Codec ID                         : 2000
Duration                         : 1h 51mn
Bit rate mode                    : Constant
Bit rate                         : 448 Kbps
Channel(s)                       : 6 channels
Channel positions                : Front: L C R, Side: L R, LFE
Sampling rate                    : 48.0 KHz
Bit depth                        : 16 bits
Stream size                      : 357 MiB (19%)
Alignment                        : Split accross interleaves
Interleave, duration             : 42 ms (1.00 video frame)
Interleave, preload duration     : 500 ms



Vince Vaughn ... Ronny Valentine
Kevin James ... Nick Brannen
Jennifer Connelly ... Beth
Winona Ryder ... Geneva
Channing Tatum ... Zip
Queen Latifah ... Susan Warner
Amy Morton ... Diane Popovich
Chelcie Ross ... Thomas Fern
Eduardo N. Martinez ... Felix
Rance Howard ... Burt
Clint Howard ... Herbert Trimpy


A man finds out that what you don't say to a friend is just as important as what 
you do is this story of how far you can bend a brotherly bond before it snaps. 
Since college, confirmed bachelor Ronny (Vaughn) and happily married Nick (James) 
have been through thick and thin. Now partners in an auto design firm, the two pals 
are vying to land a dream project that would launch their company. Ronny's girlfriend, 
Beth (Connelly), and Nick's wife, Geneva (Ryder), are by their sides. But Ronny's world 
is turned upside down when he inadvertently sees Geneva out with another man and makes 
it his mission to get answers. As the amateur investigation dissolves into mayhem, he 
learns that Nick has a few secrets of his own. Now, with the clock ticking and pressure 
mounting on the biggest presentation of their careers, Ronny must decide what will happen 
if he reveals the truth to his best friend.


[img]http://img841.imageshack.us/img841/3778/ddii.png[/img]
[img]http://img684.imageshack.us/img684/54/ddidddidii.png[/img]
[img]http://img580.imageshack.us/img580/5710/ddiddiididii.png[/img]
[img]http://img84.imageshack.us/img84/8042/ddididdiididii.png[/img]
[img]http://img508.imageshack.us/img508/9743/ddidididii.png[/img]
[img]http://img191.imageshack.us/img191/9157/ddidii.png[/img]





Greetz

ViSiON,LUSi,SANTi,MAGNET,THC,T0XiCiNK,LKRG,IMAGiNE,WBZ,FLAWL3SS,NOVA
Vik,Rapeseed,D2U,SAFC,goldadvance,MEMORY100,KaN1vE,Unevano,Pinnz,Wayne,Mr Hive
and all P2P groups 
Great Work Guys :D

CM8@hushmail.com